<svg xmlns="http://www.w3.org/2000/svg" xmlns:xlink="http://www.w3.org/1999/xlink" width="76" height="107" viewBox="0 0 76 107">
    <defs>
        <path id="prefix__a" d="M0.264 0.47L20.37 0.47 20.37 31.132 0.264 31.132z"/>
        <path id="prefix__c" d="M0.481 0.618L27.37 0.618 27.37 35.604 0.481 35.604z"/>
        <path id="prefix__e" d="M0.516 0.625L44.817 0.625 44.817 66.802 0.516 66.802z"/>
    </defs>
    <g fill="none" fill-rule="evenodd">
        <g transform="translate(0 -1) translate(55 38)">
            <mask id="prefix__b" fill="#fff">
                <use xlink:href="#prefix__a"/>
            </mask>
            <path fill="#A4D1D1" d="M2.693.47L.264 4.77C4.26 11.9 6.548 21.24 6.725 31.132h13.646C19.962 18.68 13.219 6.984 2.693.47" mask="url(#prefix__b)"/>
        </g>
        <g transform="translate(0 -1) translate(48 71)">
            <mask id="prefix__d" fill="#fff">
                <use xlink:href="#prefix__c"/>
            </mask>
            <path fill="#FFF" d="M.48 35.604C15.91 31.155 26.853 17.001 27.37.618H13.725c-.177 10.134-2.534 19.67-6.643 26.873-1.927 3.382-4.144 6.102-6.601 8.113" mask="url(#prefix__d)"/>
        </g>
        <path fill="#FFF" d="M39 71.5v36c10.916-1.106 19.643-16.785 20-36H39z" transform="translate(0 -1)"/>
        <path fill="#A4D1D1" d="M53.517 45.5L40 69.5h19c-.16-8.897-2.103-17.383-5.483-24" transform="translate(0 -1)"/>
        <g transform="translate(0 -1) translate(15 .5)">
            <mask id="prefix__f" fill="#fff">
                <use xlink:href="#prefix__e"/>
            </mask>
            <path fill="#006097" d="M31.623 31.033c-.443.48-.894.913-1.347 1.286a12.104 12.104 0 01-7.61 2.712c-2.763 0-5.464-.965-7.609-2.712a13.507 13.507 0 01-1.347-1.284 11.847 11.847 0 01-3.003-7.864c0-6.547 5.366-11.872 11.96-11.872 6.593 0 11.955 5.325 11.955 11.872 0 2.89-1.064 5.684-2.999 7.862M22.667.625C10.453.625.517 10.476.517 22.58c0 4.365 1.281 8.578 3.707 12.18.141.213.29.425.453.634l.05.098 17.94 31.309 17.913-31.28a.767.767 0 01.115-.172l.412-.592a21.774 21.774 0 003.71-12.177c0-12.105-9.939-21.956-22.15-21.956" mask="url(#prefix__f)"/>
        </g>
        <path fill="#A4D1D1" d="M16 69.5h19l-13.517-24c-3.38 6.617-5.323 15.103-5.483 24M17.586 38.5C7.115 45.098.404 56.924 0 69.5h13.572c.165-9.976 2.442-19.424 6.428-26.652L17.586 38.5z" transform="translate(0 -1)"/>
        <path fill="#FFF" d="M27 106.5c-2.454-1.993-4.675-4.71-6.623-8.103-4.127-7.213-6.494-16.756-6.674-26.897H0c.52 16.386 11.51 30.544 27 35" transform="translate(0 -1)"/>
        <path fill="#FFF" d="M36 107.5v-36H16c.348 19.213 9.073 34.894 20 36" transform="translate(0 -1)"/>
    </g>
</svg>
