<svg xmlns="http://www.w3.org/2000/svg" xmlns:xlink="http://www.w3.org/1999/xlink" width="131" height="105" viewBox="0 0 131 105">
    <defs>
        <path id="prefix__a" d="M0.952 0.789L70.952 0.789 70.952 115.789 0.952 115.789z"/>
    </defs>
    <g fill="none" fill-rule="evenodd">
        <g transform="translate(-3) rotate(54 37.465 97.789)">
            <mask id="prefix__b" fill="#fff">
                <use xlink:href="#prefix__a"/>
            </mask>
            <path fill="#A5D2D2" d="M18.316 61.304C4.25 71.81 2.34 82.492 1.126 87.834c0 0-.174 1.248-.174 3.028 0 1.423 0 3.203.348 5.162l.868 17.45c0 1.245 1.042 2.315 2.257 2.315l26.738-.18c1.217 0 2.259-1.068 2.259-2.314l.52-14.42 25.351-31.34c3.82-4.094 6.251-8.722 7.12-14.243l.173-1.6 4.34-43.803c.173-2.136-.52-4.451-2.083-5.697-1.91-1.603-5.035-2.315-7.466.536-1.736 1.956-2.433 8.012-2.778 9.613-.868 5.697-1.91 14.065-2.084 19.765v1.244c-.175 2.493-.694 4.808-1.736 7.122-5.73 12.82-17.19 28.844-17.19 28.844l-.694.89c-.523.713-1.391.89-2.26.537-.868-.536-1.04-1.605-.692-2.317l15.106-25.461c1.563-2.847.694-6.766-2.26-8.724-2.95-1.959-6.944-.89-8.505 1.958L22.48 57.033c-.693 1.244-2.776 3.203-4.165 4.271" mask="url(#prefix__b)"/>
        </g>
        <g>
            <path fill="#005F96" d="M44.176 0L26.176 20 62.176 20z" transform="translate(-3) translate(37.476)"/>
            <path fill="#FFF" d="M10.5 18L0 30 21 30z" transform="translate(-3) translate(37.476)"/>
            <path fill="#005F96" d="M35.176 18H53.176V43H35.176z" transform="translate(-3) translate(37.476)"/>
            <path fill="#FFF" d="M5 28H16V43H5z" transform="translate(-3) translate(37.476)"/>
        </g>
    </g>
</svg>
