<svg xmlns="http://www.w3.org/2000/svg" xmlns:xlink="http://www.w3.org/1999/xlink" width="100" height="114" viewBox="0 0 100 114">
    <defs>
        <path id="prefix__a" d="M0.732 0.895L37.838 0.895 37.838 30.994 0.732 30.994z"/>
    </defs>
    <g fill="none" fill-rule="evenodd">
        <path fill="#A4D1D1" d="M68 58.001C68 50.546 74.044 44.5 81.5 44.5S95 50.546 95 58.001C95 65.454 88.956 71.5 81.5 71.5S68 65.454 68 58.001"/>
        <g transform="translate(62 74.5)">
            <mask id="prefix__b" fill="#fff">
                <use xlink:href="#prefix__a"/>
            </mask>
            <path fill="#A4D1D1" d="M37.84 30.994V19.841h-.005C37.83 9.376 29.528.895 19.287.895 9.043.895.74 9.375.737 19.84H.732v11.153h37.107z" mask="url(#prefix__b)"/>
        </g>
        <path fill="#A4D1D1" d="M5 58.001C5 50.546 11.044 44.5 18.5 44.5S32 50.546 32 58.001C32 65.454 25.956 71.5 18.5 71.5S5 65.454 5 58.001M37 105.5V94.383h-.004C36.99 83.953 28.713 75.5 18.5 75.5 8.287 75.5.01 83.953.004 94.383H0V105.5h37z"/>
        <path fill="#FFF" d="M37 66.999C37 59.546 43.043 53.5 50.501 53.5 57.957 53.5 64 59.546 64 66.999 64 74.454 57.957 80.5 50.501 80.5 43.043 80.5 37 74.454 37 66.999M69 113.5v-11.117h-.007C68.991 91.953 60.713 83.5 50.5 83.5c-10.212 0-18.49 8.453-18.495 18.883H32V113.5h37z"/>
        <path fill="#006097" d="M41.947 47.5L39.005 40.103 32 42.649 41.051 20.5 51 25.353z"/>
        <path fill="#006097" d="M59.053 47.5L61.995 40.103 69 42.649 59.949 20.5 50 25.353z"/>
        <path fill="#A4D1D1" d="M34 17.5c0-9.39 7.612-17 17.001-17C60.388.5 68 8.11 68 17.5s-7.612 17-16.999 17C41.611 34.5 34 26.89 34 17.5"/>
        <path fill="#006097" d="M51 7.5L54.09 14.083 61 15.141 55.999 20.264 57.18 27.5 51 24.082 44.82 27.5 46.001 20.264 41 15.141 47.91 14.083z"/>
    </g>
</svg>
