<svg xmlns="http://www.w3.org/2000/svg" xmlns:xlink="http://www.w3.org/1999/xlink" width="99" height="100" viewBox="0 0 99 100">
    <defs>
        <path id="prefix__a" d="M0.299 0.796L26.47 0.796 26.47 27.283 0.299 27.283z"/>
    </defs>
    <g fill="none" fill-rule="evenodd">
        <path stroke="#005F96" stroke-linecap="round" stroke-width="4" d="M67 39.619L67 73.454 81.631 86.5" transform="translate(-17 -19)"/>
        <g>
            <path fill="#A6D2D3" d="M49.501 102C22.205 102 0 79.893 0 52.722 0 33.604 11.259 16.051 28.685 8l3.785 8.12C18.206 22.707 8.99 37.075 8.99 52.722c0 22.237 18.173 40.328 40.511 40.328 22.338 0 40.508-18.09 40.508-40.328H99C99 79.892 76.797 102 49.501 102" transform="translate(-17 -19) rotate(63 45.13 75.003)"/>
            <g transform="translate(-17 -19) rotate(63 45.13 75.003) translate(23)">
                <mask id="prefix__b" fill="#fff">
                    <use xlink:href="#prefix__a"/>
                </mask>
                <path fill="#A6D2D3" d="M7.025 27.283L26.47 8.185 0.299 0.795z" mask="url(#prefix__b)"/>
            </g>
            <path fill="#FFF" d="M55.912 12A40.196 40.196 0 0052 11.704L52.229 3c1.595.044 3.202.163 4.771.361L55.912 12zM68.402 17.466A41.572 41.572 0 0061 14.47L63.65 6a50.678 50.678 0 019.058 3.662l-4.306 7.804zm12.336 9.86a40.692 40.692 0 00-5.674-5.516l5.786-6.841a49.895 49.895 0 016.929 6.737l-7.04 5.62zM88.286 41a39.088 39.088 0 00-3.076-7.193l8.022-4.191A47.804 47.804 0 0197 38.423L88.286 41zM99 49.893L90.24 50a42.635 42.635 0 00-.24-4.01l8.704-.99c.178 1.608.276 3.256.296 4.893" transform="translate(-17 -19) rotate(63 45.13 75.003)"/>
        </g>
    </g>
</svg>
