<svg xmlns="http://www.w3.org/2000/svg" width="34" height="34" viewBox="0 0 34 34">
    <g fill="#FFF">
        <path d="M23.375 0h-12.75C4.758 0 0 4.758 0 10.625v12.75C0 29.242 4.758 34 10.625 34h12.75C29.242 34 34 29.242 34 23.375v-12.75C34 4.758 29.242 0 23.375 0zm7.438 23.375c0 4.101-3.337 7.438-7.438 7.438h-12.75c-4.101 0-7.438-3.337-7.438-7.438v-12.75c0-4.101 3.337-7.438 7.438-7.438h12.75c4.101 0 7.438 3.337 7.438 7.438v12.75z"/>
        <path d="M17.5 9a8.5 8.5 0 100 17 8.5 8.5 0 000-17zm0 13.813a5.32 5.32 0 01-5.313-5.313 5.319 5.319 0 015.313-5.313 5.319 5.319 0 015.313 5.313 5.32 5.32 0 01-5.313 5.313z"/>
        <circle cx="26" cy="8" r="1"/>
    </g>
</svg>
