<svg xmlns="http://www.w3.org/2000/svg" width="512" height="384" viewBox="0 0 512 384">
  <path id="mail-6" d="M512,384a63.382,63.382,0,0,1-8.219,30.781L342.125,233.906,502.031,94A63.559,63.559,0,0,1,512,128ZM256,266.75,478.5,72.063A63.146,63.146,0,0,0,448,64H64a62.945,62.945,0,0,0-30.484,8.063Zm62.031-11.781-51.5,45.094a16.052,16.052,0,0,1-21.062,0l-51.516-45.094L30.25,438.156A63.225,63.225,0,0,0,64,448H448a63.228,63.228,0,0,0,33.75-9.844ZM9.969,94A63.559,63.559,0,0,0,0,128V384a63.218,63.218,0,0,0,8.219,30.781L169.86,233.875Z" transform="translate(0 -64)" fill="#005f96"/>
</svg>
