<svg xmlns="http://www.w3.org/2000/svg" width="20" height="21" viewBox="0 0 20 21">
    <path fill="#ED7102" fill-rule="evenodd" d="M0 6.275a6.671 6.671 0 01.539-2.612c.37-.859.9-1.61 1.613-2.23.421-.366.854-.718 1.289-1.07a1.6 1.6 0 01.746-.345c.313-.053.603.013.877.162.377.205.665.508.931.833.358.437.646.92.954 1.389.225.343.444.689.622 1.058.183.377.329.767.373 1.186.061.575-.091 1.09-.493 1.514-.23.244-.5.452-.748.68-.24.222-.516.398-.782.587-.32.228-.567.513-.67.898-.085.32-.063.639.013.956.104.437.295.84.518 1.23.393.683.874 1.305 1.386 1.906.483.568.989 1.117 1.538 1.625.496.46 1.017.887 1.624 1.203.331.173.677.301 1.057.326a1.56 1.56 0 001.151-.397c.073-.062.147-.125.209-.197.283-.327.62-.597.951-.872.187-.155.378-.312.587-.436.521-.308 1.08-.336 1.654-.157.468.146.888.383 1.27.68.463.359.91.737 1.362 1.111.322.267.627.551.893.873.188.229.352.473.452.753.17.474.08.908-.246 1.288-.153.178-.335.333-.51.491-.306.274-.61.55-.926.812a6.325 6.325 0 01-2.186 1.173 6.935 6.935 0 01-2.348.301c-1.147-.044-2.228-.34-3.266-.806-1.11-.5-2.115-1.162-3.058-1.918a21.668 21.668 0 01-1.83-1.654 28.264 28.264 0 01-2.821-3.296c-.708-.974-1.333-1.996-1.822-3.094a10.546 10.546 0 01-.808-2.654A8.233 8.233 0 010 6.275z"/>
</svg>
