<svg xmlns="http://www.w3.org/2000/svg" width="34" height="28" viewBox="0 0 34 28">
    <path fill="#FFF" d="M34 3.315a14.38 14.38 0 01-4.016 1.115A7.01 7.01 0 0033.05.526a13.817 13.817 0 01-4.42 1.71A6.942 6.942 0 0023.54 0c-3.86 0-6.966 3.175-6.966 7.067 0 .56.047 1.098.161 1.61-5.795-.286-10.922-3.1-14.367-7.389a7.187 7.187 0 00-.954 3.571A7.1 7.1 0 004.51 10.73a6.813 6.813 0 01-3.149-.87v.078c0 3.433 2.416 6.285 5.584 6.942a6.869 6.869 0 01-1.827.232c-.446 0-.897-.026-1.32-.12.903 2.798 3.466 4.854 6.513 4.921a13.887 13.887 0 01-8.642 3.013c-.571 0-1.12-.025-1.668-.096A19.433 19.433 0 0010.693 28C23.52 28 30.532 17.23 30.532 7.896c0-.312-.01-.614-.026-.913C31.89 5.988 33.053 4.745 34 3.315z"/>
</svg>
